<svg width="64" height="64" viewBox="0 0 64 64" fill="none" xmlns="http://www.w3.org/2000/svg">
  <rect width="64" height="64" rx="12" fill="url(#gradient)"/>
  <path d="M20 24C20 19.5817 23.5817 16 28 16H36C40.4183 16 44 19.5817 44 24V32C44 36.4183 40.4183 40 36 40H28C23.5817 40 20 36.4183 20 32V24Z" fill="white"/>
  <circle cx="32" cy="28" r="6" fill="url(#gradient)"/>
  <circle cx="46" cy="18" r="4" fill="#ef4444"/>
  <circle cx="44" cy="16" r="2" fill="white"/>
  <path d="M16 44C16 42.8954 16.8954 42 18 42H22C23.1046 42 24 42.8954 24 44V46C24 47.1046 23.1046 48 22 48H18C16.8954 48 16 47.1046 16 46V44Z" fill="white"/>
  <path d="M28 44C28 42.8954 28.8954 42 30 42H34C35.1046 42 36 42.8954 36 44V46C36 47.1046 35.1046 48 34 48H30C28.8954 48 28 47.1046 28 46V44Z" fill="white"/>
  <path d="M40 44C40 42.8954 40.8954 42 42 42H46C47.1046 42 48 42.8954 48 44V46C48 47.1046 47.1046 48 46 48H42C40.8954 48 40 47.1046 40 46V44Z" fill="white"/>
  <path d="M16 52C16 50.8954 16.8954 50 18 50H46C47.1046 50 48 50.8954 48 52V54C48 55.1046 47.1046 56 46 56H18C16.8954 56 16 55.1046 16 54V52Z" fill="white"/>
  <defs>
    <linearGradient id="gradient" x1="0" y1="0" x2="64" y2="64" gradientUnits="userSpaceOnUse">
      <stop stop-color="#3b82f6"/>
      <stop offset="1" stop-color="#8b5cf6"/>
    </linearGradient>
  </defs>
</svg>